<?xml version="1.0" encoding="utf-8" standalone="no"?>
<!DOCTYPE svg PUBLIC "-//W3C//DTD SVG 1.1//EN"
  "http://www.w3.org/Graphics/SVG/1.1/DTD/svg11.dtd">
<!-- Created with matplotlib (https://matplotlib.org/) -->
<svg height="388.844525pt" version="1.1" viewBox="0 0 1000.358125 388.844525" width="1000.358125pt" xmlns="http://www.w3.org/2000/svg" xmlns:xlink="http://www.w3.org/1999/xlink">
 <defs>
  <style type="text/css">
*{stroke-linecap:butt;stroke-linejoin:round;}
  </style>
 </defs>
 <g id="figure_1">
  <g id="axes_1">
   <g id="patch_1">
    <path d="M 32.968125 353.2239 
L 993.158125 353.2239 
L 993.158125 35.2559 
L 32.968125 35.2559 
z
" style="fill:#ffffff;"/>
   </g>
   <g id="matplotlib.axis_1">
    <g id="xtick_1">
     <g id="text_1">
      <!-- 0 -->
      <defs>
       <path d="M 31.78125 66.40625 
Q 24.171875 66.40625 20.328125 58.90625 
Q 16.5 51.421875 16.5 36.375 
Q 16.5 21.390625 20.328125 13.890625 
Q 24.171875 6.390625 31.78125 6.390625 
Q 39.453125 6.390625 43.28125 13.890625 
Q 47.125 21.390625 47.125 36.375 
Q 47.125 51.421875 43.28125 58.90625 
Q 39.453125 66.40625 31.78125 66.40625 
z
M 31.78125 74.21875 
Q 44.046875 74.21875 50.515625 64.515625 
Q 56.984375 54.828125 56.984375 36.375 
Q 56.984375 17.96875 50.515625 8.265625 
Q 44.046875 -1.421875 31.78125 -1.421875 
Q 19.53125 -1.421875 13.0625 8.265625 
Q 6.59375 17.96875 6.59375 36.375 
Q 6.59375 54.828125 13.0625 64.515625 
Q 19.53125 74.21875 31.78125 74.21875 
z
" id="DejaVuSans-48"/>
      </defs>
      <g transform="translate(68.209736 366.30265)scale(0.08 -0.08)">
       <use xlink:href="#DejaVuSans-48"/>
      </g>
     </g>
    </g>
    <g id="xtick_2">
     <g id="text_2">
      <!-- 20 -->
      <defs>
       <path d="M 19.1875 8.296875 
L 53.609375 8.296875 
L 53.609375 0 
L 7.328125 0 
L 7.328125 8.296875 
Q 12.9375 14.109375 22.625 23.890625 
Q 32.328125 33.6875 34.8125 36.53125 
Q 39.546875 41.84375 41.421875 45.53125 
Q 43.3125 49.21875 43.3125 52.78125 
Q 43.3125 58.59375 39.234375 62.25 
Q 35.15625 65.921875 28.609375 65.921875 
Q 23.96875 65.921875 18.8125 64.3125 
Q 13.671875 62.703125 7.8125 59.421875 
L 7.8125 69.390625 
Q 13.765625 71.78125 18.9375 73 
Q 24.125 74.21875 28.421875 74.21875 
Q 39.75 74.21875 46.484375 68.546875 
Q 53.21875 62.890625 53.21875 53.421875 
Q 53.21875 48.921875 51.53125 44.890625 
Q 49.859375 40.875 45.40625 35.40625 
Q 44.1875 33.984375 37.640625 27.21875 
Q 31.109375 20.453125 19.1875 8.296875 
z
" id="DejaVuSans-50"/>
      </defs>
      <g transform="translate(182.832521 366.30265)scale(0.08 -0.08)">
       <use xlink:href="#DejaVuSans-50"/>
       <use x="63.623047" xlink:href="#DejaVuSans-48"/>
      </g>
     </g>
    </g>
    <g id="xtick_3">
     <g id="text_3">
      <!-- 40 -->
      <defs>
       <path d="M 37.796875 64.3125 
L 12.890625 25.390625 
L 37.796875 25.390625 
z
M 35.203125 72.90625 
L 47.609375 72.90625 
L 47.609375 25.390625 
L 58.015625 25.390625 
L 58.015625 17.1875 
L 47.609375 17.1875 
L 47.609375 0 
L 37.796875 0 
L 37.796875 17.1875 
L 4.890625 17.1875 
L 4.890625 26.703125 
z
" id="DejaVuSans-52"/>
      </defs>
      <g transform="translate(300.000306 366.30265)scale(0.08 -0.08)">
       <use xlink:href="#DejaVuSans-52"/>
       <use x="63.623047" xlink:href="#DejaVuSans-48"/>
      </g>
     </g>
    </g>
    <g id="xtick_4">
     <g id="text_4">
      <!-- 60 -->
      <defs>
       <path d="M 33.015625 40.375 
Q 26.375 40.375 22.484375 35.828125 
Q 18.609375 31.296875 18.609375 23.390625 
Q 18.609375 15.53125 22.484375 10.953125 
Q 26.375 6.390625 33.015625 6.390625 
Q 39.65625 6.390625 43.53125 10.953125 
Q 47.40625 15.53125 47.40625 23.390625 
Q 47.40625 31.296875 43.53125 35.828125 
Q 39.65625 40.375 33.015625 40.375 
z
M 52.59375 71.296875 
L 52.59375 62.3125 
Q 48.875 64.0625 45.09375 64.984375 
Q 41.3125 65.921875 37.59375 65.921875 
Q 27.828125 65.921875 22.671875 59.328125 
Q 17.53125 52.734375 16.796875 39.40625 
Q 19.671875 43.65625 24.015625 45.921875 
Q 28.375 48.1875 33.59375 48.1875 
Q 44.578125 48.1875 50.953125 41.515625 
Q 57.328125 34.859375 57.328125 23.390625 
Q 57.328125 12.15625 50.6875 5.359375 
Q 44.046875 -1.421875 33.015625 -1.421875 
Q 20.359375 -1.421875 13.671875 8.265625 
Q 6.984375 17.96875 6.984375 36.375 
Q 6.984375 53.65625 15.1875 63.9375 
Q 23.390625 74.21875 37.203125 74.21875 
Q 40.921875 74.21875 44.703125 73.484375 
Q 48.484375 72.75 52.59375 71.296875 
z
" id="DejaVuSans-54"/>
      </defs>
      <g transform="translate(417.168091 366.30265)scale(0.08 -0.08)">
       <use xlink:href="#DejaVuSans-54"/>
       <use x="63.623047" xlink:href="#DejaVuSans-48"/>
      </g>
     </g>
    </g>
    <g id="xtick_5">
     <g id="text_5">
      <!-- 80 -->
      <defs>
       <path d="M 31.78125 34.625 
Q 24.75 34.625 20.71875 30.859375 
Q 16.703125 27.09375 16.703125 20.515625 
Q 16.703125 13.921875 20.71875 10.15625 
Q 24.75 6.390625 31.78125 6.390625 
Q 38.8125 6.390625 42.859375 10.171875 
Q 46.921875 13.96875 46.921875 20.515625 
Q 46.921875 27.09375 42.890625 30.859375 
Q 38.875 34.625 31.78125 34.625 
z
M 21.921875 38.8125 
Q 15.578125 40.375 12.03125 44.71875 
Q 8.5 49.078125 8.5 55.328125 
Q 8.5 64.0625 14.71875 69.140625 
Q 20.953125 74.21875 31.78125 74.21875 
Q 42.671875 74.21875 48.875 69.140625 
Q 55.078125 64.0625 55.078125 55.328125 
Q 55.078125 49.078125 51.53125 44.71875 
Q 48 40.375 41.703125 38.8125 
Q 48.828125 37.15625 52.796875 32.3125 
Q 56.78125 27.484375 56.78125 20.515625 
Q 56.78125 9.90625 50.3125 4.234375 
Q 43.84375 -1.421875 31.78125 -1.421875 
Q 19.734375 -1.421875 13.25 4.234375 
Q 6.78125 9.90625 6.78125 20.515625 
Q 6.78125 27.484375 10.78125 32.3125 
Q 14.796875 37.15625 21.921875 38.8125 
z
M 18.3125 54.390625 
Q 18.3125 48.734375 21.84375 45.5625 
Q 25.390625 42.390625 31.78125 42.390625 
Q 38.140625 42.390625 41.71875 45.5625 
Q 45.3125 48.734375 45.3125 54.390625 
Q 45.3125 60.0625 41.71875 63.234375 
Q 38.140625 66.40625 31.78125 66.40625 
Q 25.390625 66.40625 21.84375 63.234375 
Q 18.3125 60.0625 18.3125 54.390625 
z
" id="DejaVuSans-56"/>
      </defs>
      <g transform="translate(534.335877 366.30265)scale(0.08 -0.08)">
       <use xlink:href="#DejaVuSans-56"/>
       <use x="63.623047" xlink:href="#DejaVuSans-48"/>
      </g>
     </g>
    </g>
    <g id="xtick_6">
     <g id="text_6">
      <!-- 100 -->
      <defs>
       <path d="M 12.40625 8.296875 
L 28.515625 8.296875 
L 28.515625 63.921875 
L 10.984375 60.40625 
L 10.984375 69.390625 
L 28.421875 72.90625 
L 38.28125 72.90625 
L 38.28125 8.296875 
L 54.390625 8.296875 
L 54.390625 0 
L 12.40625 0 
z
" id="DejaVuSans-49"/>
      </defs>
      <g transform="translate(648.958662 366.30265)scale(0.08 -0.08)">
       <use xlink:href="#DejaVuSans-49"/>
       <use x="63.623047" xlink:href="#DejaVuSans-48"/>
       <use x="127.246094" xlink:href="#DejaVuSans-48"/>
      </g>
     </g>
    </g>
    <g id="xtick_7">
     <g id="text_7">
      <!-- 120 -->
      <g transform="translate(766.126447 366.30265)scale(0.08 -0.08)">
       <use xlink:href="#DejaVuSans-49"/>
       <use x="63.623047" xlink:href="#DejaVuSans-50"/>
       <use x="127.246094" xlink:href="#DejaVuSans-48"/>
      </g>
     </g>
    </g>
    <g id="xtick_8">
     <g id="text_8">
      <!-- 140 -->
      <g transform="translate(883.294232 366.30265)scale(0.08 -0.08)">
       <use xlink:href="#DejaVuSans-49"/>
       <use x="63.623047" xlink:href="#DejaVuSans-52"/>
       <use x="127.246094" xlink:href="#DejaVuSans-48"/>
      </g>
     </g>
    </g>
    <g id="text_9">
     <!-- Read Position -->
     <defs>
      <path d="M 44.390625 34.1875 
Q 47.5625 33.109375 50.5625 29.59375 
Q 53.5625 26.078125 56.59375 19.921875 
L 66.609375 0 
L 56 0 
L 46.6875 18.703125 
Q 43.0625 26.03125 39.671875 28.421875 
Q 36.28125 30.8125 30.421875 30.8125 
L 19.671875 30.8125 
L 19.671875 0 
L 9.8125 0 
L 9.8125 72.90625 
L 32.078125 72.90625 
Q 44.578125 72.90625 50.734375 67.671875 
Q 56.890625 62.453125 56.890625 51.90625 
Q 56.890625 45.015625 53.6875 40.46875 
Q 50.484375 35.9375 44.390625 34.1875 
z
M 19.671875 64.796875 
L 19.671875 38.921875 
L 32.078125 38.921875 
Q 39.203125 38.921875 42.84375 42.21875 
Q 46.484375 45.515625 46.484375 51.90625 
Q 46.484375 58.296875 42.84375 61.546875 
Q 39.203125 64.796875 32.078125 64.796875 
z
" id="DejaVuSans-82"/>
      <path d="M 56.203125 29.59375 
L 56.203125 25.203125 
L 14.890625 25.203125 
Q 15.484375 15.921875 20.484375 11.0625 
Q 25.484375 6.203125 34.421875 6.203125 
Q 39.59375 6.203125 44.453125 7.46875 
Q 49.3125 8.734375 54.109375 11.28125 
L 54.109375 2.78125 
Q 49.265625 0.734375 44.1875 -0.34375 
Q 39.109375 -1.421875 33.890625 -1.421875 
Q 20.796875 -1.421875 13.15625 6.1875 
Q 5.515625 13.8125 5.515625 26.8125 
Q 5.515625 40.234375 12.765625 48.109375 
Q 20.015625 56 32.328125 56 
Q 43.359375 56 49.78125 48.890625 
Q 56.203125 41.796875 56.203125 29.59375 
z
M 47.21875 32.234375 
Q 47.125 39.59375 43.09375 43.984375 
Q 39.0625 48.390625 32.421875 48.390625 
Q 24.90625 48.390625 20.390625 44.140625 
Q 15.875 39.890625 15.1875 32.171875 
z
" id="DejaVuSans-101"/>
      <path d="M 34.28125 27.484375 
Q 23.390625 27.484375 19.1875 25 
Q 14.984375 22.515625 14.984375 16.5 
Q 14.984375 11.71875 18.140625 8.90625 
Q 21.296875 6.109375 26.703125 6.109375 
Q 34.1875 6.109375 38.703125 11.40625 
Q 43.21875 16.703125 43.21875 25.484375 
L 43.21875 27.484375 
z
M 52.203125 31.203125 
L 52.203125 0 
L 43.21875 0 
L 43.21875 8.296875 
Q 40.140625 3.328125 35.546875 0.953125 
Q 30.953125 -1.421875 24.3125 -1.421875 
Q 15.921875 -1.421875 10.953125 3.296875 
Q 6 8.015625 6 15.921875 
Q 6 25.140625 12.171875 29.828125 
Q 18.359375 34.515625 30.609375 34.515625 
L 43.21875 34.515625 
L 43.21875 35.40625 
Q 43.21875 41.609375 39.140625 45 
Q 35.0625 48.390625 27.6875 48.390625 
Q 23 48.390625 18.546875 47.265625 
Q 14.109375 46.140625 10.015625 43.890625 
L 10.015625 52.203125 
Q 14.9375 54.109375 19.578125 55.046875 
Q 24.21875 56 28.609375 56 
Q 40.484375 56 46.34375 49.84375 
Q 52.203125 43.703125 52.203125 31.203125 
z
" id="DejaVuSans-97"/>
      <path d="M 45.40625 46.390625 
L 45.40625 75.984375 
L 54.390625 75.984375 
L 54.390625 0 
L 45.40625 0 
L 45.40625 8.203125 
Q 42.578125 3.328125 38.25 0.953125 
Q 33.9375 -1.421875 27.875 -1.421875 
Q 17.96875 -1.421875 11.734375 6.484375 
Q 5.515625 14.40625 5.515625 27.296875 
Q 5.515625 40.1875 11.734375 48.09375 
Q 17.96875 56 27.875 56 
Q 33.9375 56 38.25 53.625 
Q 42.578125 51.265625 45.40625 46.390625 
z
M 14.796875 27.296875 
Q 14.796875 17.390625 18.875 11.75 
Q 22.953125 6.109375 30.078125 6.109375 
Q 37.203125 6.109375 41.296875 11.75 
Q 45.40625 17.390625 45.40625 27.296875 
Q 45.40625 37.203125 41.296875 42.84375 
Q 37.203125 48.484375 30.078125 48.484375 
Q 22.953125 48.484375 18.875 42.84375 
Q 14.796875 37.203125 14.796875 27.296875 
z
" id="DejaVuSans-100"/>
      <path id="DejaVuSans-32"/>
      <path d="M 19.671875 64.796875 
L 19.671875 37.40625 
L 32.078125 37.40625 
Q 38.96875 37.40625 42.71875 40.96875 
Q 46.484375 44.53125 46.484375 51.125 
Q 46.484375 57.671875 42.71875 61.234375 
Q 38.96875 64.796875 32.078125 64.796875 
z
M 9.8125 72.90625 
L 32.078125 72.90625 
Q 44.34375 72.90625 50.609375 67.359375 
Q 56.890625 61.8125 56.890625 51.125 
Q 56.890625 40.328125 50.609375 34.8125 
Q 44.34375 29.296875 32.078125 29.296875 
L 19.671875 29.296875 
L 19.671875 0 
L 9.8125 0 
z
" id="DejaVuSans-80"/>
      <path d="M 30.609375 48.390625 
Q 23.390625 48.390625 19.1875 42.75 
Q 14.984375 37.109375 14.984375 27.296875 
Q 14.984375 17.484375 19.15625 11.84375 
Q 23.34375 6.203125 30.609375 6.203125 
Q 37.796875 6.203125 41.984375 11.859375 
Q 46.1875 17.53125 46.1875 27.296875 
Q 46.1875 37.015625 41.984375 42.703125 
Q 37.796875 48.390625 30.609375 48.390625 
z
M 30.609375 56 
Q 42.328125 56 49.015625 48.375 
Q 55.71875 40.765625 55.71875 27.296875 
Q 55.71875 13.875 49.015625 6.21875 
Q 42.328125 -1.421875 30.609375 -1.421875 
Q 18.84375 -1.421875 12.171875 6.21875 
Q 5.515625 13.875 5.515625 27.296875 
Q 5.515625 40.765625 12.171875 48.375 
Q 18.84375 56 30.609375 56 
z
" id="DejaVuSans-111"/>
      <path d="M 44.28125 53.078125 
L 44.28125 44.578125 
Q 40.484375 46.53125 36.375 47.5 
Q 32.28125 48.484375 27.875 48.484375 
Q 21.1875 48.484375 17.84375 46.4375 
Q 14.5 44.390625 14.5 40.28125 
Q 14.5 37.15625 16.890625 35.375 
Q 19.28125 33.59375 26.515625 31.984375 
L 29.59375 31.296875 
Q 39.15625 29.25 43.1875 25.515625 
Q 47.21875 21.78125 47.21875 15.09375 
Q 47.21875 7.46875 41.1875 3.015625 
Q 35.15625 -1.421875 24.609375 -1.421875 
Q 20.21875 -1.421875 15.453125 -0.5625 
Q 10.6875 0.296875 5.421875 2 
L 5.421875 11.28125 
Q 10.40625 8.6875 15.234375 7.390625 
Q 20.0625 6.109375 24.8125 6.109375 
Q 31.15625 6.109375 34.5625 8.28125 
Q 37.984375 10.453125 37.984375 14.40625 
Q 37.984375 18.0625 35.515625 20.015625 
Q 33.0625 21.96875 24.703125 23.78125 
L 21.578125 24.515625 
Q 13.234375 26.265625 9.515625 29.90625 
Q 5.8125 33.546875 5.8125 39.890625 
Q 5.8125 47.609375 11.28125 51.796875 
Q 16.75 56 26.8125 56 
Q 31.78125 56 36.171875 55.265625 
Q 40.578125 54.546875 44.28125 53.078125 
z
" id="DejaVuSans-115"/>
      <path d="M 9.421875 54.6875 
L 18.40625 54.6875 
L 18.40625 0 
L 9.421875 0 
z
M 9.421875 75.984375 
L 18.40625 75.984375 
L 18.40625 64.59375 
L 9.421875 64.59375 
z
" id="DejaVuSans-105"/>
      <path d="M 18.3125 70.21875 
L 18.3125 54.6875 
L 36.8125 54.6875 
L 36.8125 47.703125 
L 18.3125 47.703125 
L 18.3125 18.015625 
Q 18.3125 11.328125 20.140625 9.421875 
Q 21.96875 7.515625 27.59375 7.515625 
L 36.8125 7.515625 
L 36.8125 0 
L 27.59375 0 
Q 17.1875 0 13.234375 3.875 
Q 9.28125 7.765625 9.28125 18.015625 
L 9.28125 47.703125 
L 2.6875 47.703125 
L 2.6875 54.6875 
L 9.28125 54.6875 
L 9.28125 70.21875 
z
" id="DejaVuSans-116"/>
      <path d="M 54.890625 33.015625 
L 54.890625 0 
L 45.90625 0 
L 45.90625 32.71875 
Q 45.90625 40.484375 42.875 44.328125 
Q 39.84375 48.1875 33.796875 48.1875 
Q 26.515625 48.1875 22.3125 43.546875 
Q 18.109375 38.921875 18.109375 30.90625 
L 18.109375 0 
L 9.078125 0 
L 9.078125 54.6875 
L 18.109375 54.6875 
L 18.109375 46.1875 
Q 21.34375 51.125 25.703125 53.5625 
Q 30.078125 56 35.796875 56 
Q 45.21875 56 50.046875 50.171875 
Q 54.890625 44.34375 54.890625 33.015625 
z
" id="DejaVuSans-110"/>
     </defs>
     <g transform="translate(479.045156 379.564837)scale(0.1 -0.1)">
      <use xlink:href="#DejaVuSans-82"/>
      <use x="69.419922" xlink:href="#DejaVuSans-101"/>
      <use x="130.943359" xlink:href="#DejaVuSans-97"/>
      <use x="192.222656" xlink:href="#DejaVuSans-100"/>
      <use x="255.699219" xlink:href="#DejaVuSans-32"/>
      <use x="287.486328" xlink:href="#DejaVuSans-80"/>
      <use x="347.742188" xlink:href="#DejaVuSans-111"/>
      <use x="408.923828" xlink:href="#DejaVuSans-115"/>
      <use x="461.023438" xlink:href="#DejaVuSans-105"/>
      <use x="488.806641" xlink:href="#DejaVuSans-116"/>
      <use x="528.015625" xlink:href="#DejaVuSans-105"/>
      <use x="555.798828" xlink:href="#DejaVuSans-111"/>
      <use x="616.980469" xlink:href="#DejaVuSans-110"/>
     </g>
    </g>
   </g>
   <g id="matplotlib.axis_2">
    <g id="ytick_1">
     <g id="line2d_1">
      <path clip-path="url(#p1aca4e119b)" d="M 32.968125 353.2239 
L 993.158125 353.2239 
" style="fill:none;stroke:#dedede;stroke-linecap:square;"/>
     </g>
     <g id="text_10">
      <!-- 0 -->
      <g transform="translate(20.878125 356.263275)scale(0.08 -0.08)">
       <use xlink:href="#DejaVuSans-48"/>
      </g>
     </g>
    </g>
    <g id="ytick_2">
     <g id="line2d_2">
      <path clip-path="url(#p1aca4e119b)" d="M 32.968125 289.6303 
L 993.158125 289.6303 
" style="fill:none;stroke:#dedede;stroke-linecap:square;"/>
     </g>
     <g id="text_11">
      <!-- 1 -->
      <g transform="translate(20.878125 292.669675)scale(0.08 -0.08)">
       <use xlink:href="#DejaVuSans-49"/>
      </g>
     </g>
    </g>
    <g id="ytick_3">
     <g id="line2d_3">
      <path clip-path="url(#p1aca4e119b)" d="M 32.968125 226.0367 
L 993.158125 226.0367 
" style="fill:none;stroke:#dedede;stroke-linecap:square;"/>
     </g>
     <g id="text_12">
      <!-- 2 -->
      <g transform="translate(20.878125 229.076075)scale(0.08 -0.08)">
       <use xlink:href="#DejaVuSans-50"/>
      </g>
     </g>
    </g>
    <g id="ytick_4">
     <g id="line2d_4">
      <path clip-path="url(#p1aca4e119b)" d="M 32.968125 162.4431 
L 993.158125 162.4431 
" style="fill:none;stroke:#dedede;stroke-linecap:square;"/>
     </g>
     <g id="text_13">
      <!-- 3 -->
      <defs>
       <path d="M 40.578125 39.3125 
Q 47.65625 37.796875 51.625 33 
Q 55.609375 28.21875 55.609375 21.1875 
Q 55.609375 10.40625 48.1875 4.484375 
Q 40.765625 -1.421875 27.09375 -1.421875 
Q 22.515625 -1.421875 17.65625 -0.515625 
Q 12.796875 0.390625 7.625 2.203125 
L 7.625 11.71875 
Q 11.71875 9.328125 16.59375 8.109375 
Q 21.484375 6.890625 26.8125 6.890625 
Q 36.078125 6.890625 40.9375 10.546875 
Q 45.796875 14.203125 45.796875 21.1875 
Q 45.796875 27.640625 41.28125 31.265625 
Q 36.765625 34.90625 28.71875 34.90625 
L 20.21875 34.90625 
L 20.21875 43.015625 
L 29.109375 43.015625 
Q 36.375 43.015625 40.234375 45.921875 
Q 44.09375 48.828125 44.09375 54.296875 
Q 44.09375 59.90625 40.109375 62.90625 
Q 36.140625 65.921875 28.71875 65.921875 
Q 24.65625 65.921875 20.015625 65.03125 
Q 15.375 64.15625 9.8125 62.3125 
L 9.8125 71.09375 
Q 15.4375 72.65625 20.34375 73.4375 
Q 25.25 74.21875 29.59375 74.21875 
Q 40.828125 74.21875 47.359375 69.109375 
Q 53.90625 64.015625 53.90625 55.328125 
Q 53.90625 49.265625 50.4375 45.09375 
Q 46.96875 40.921875 40.578125 39.3125 
z
" id="DejaVuSans-51"/>
      </defs>
      <g transform="translate(20.878125 165.482475)scale(0.08 -0.08)">
       <use xlink:href="#DejaVuSans-51"/>
      </g>
     </g>
    </g>
    <g id="ytick_5">
     <g id="line2d_5">
      <path clip-path="url(#p1aca4e119b)" d="M 32.968125 98.8495 
L 993.158125 98.8495 
" style="fill:none;stroke:#dedede;stroke-linecap:square;"/>
     </g>
     <g id="text_14">
      <!-- 4 -->
      <g transform="translate(20.878125 101.888875)scale(0.08 -0.08)">
       <use xlink:href="#DejaVuSans-52"/>
      </g>
     </g>
    </g>
    <g id="ytick_6">
     <g id="line2d_6">
      <path clip-path="url(#p1aca4e119b)" d="M 32.968125 35.2559 
L 993.158125 35.2559 
" style="fill:none;stroke:#dedede;stroke-linecap:square;"/>
     </g>
     <g id="text_15">
      <!-- 5 -->
      <defs>
       <path d="M 10.796875 72.90625 
L 49.515625 72.90625 
L 49.515625 64.59375 
L 19.828125 64.59375 
L 19.828125 46.734375 
Q 21.96875 47.46875 24.109375 47.828125 
Q 26.265625 48.1875 28.421875 48.1875 
Q 40.625 48.1875 47.75 41.5 
Q 54.890625 34.8125 54.890625 23.390625 
Q 54.890625 11.625 47.5625 5.09375 
Q 40.234375 -1.421875 26.90625 -1.421875 
Q 22.3125 -1.421875 17.546875 -0.640625 
Q 12.796875 0.140625 7.71875 1.703125 
L 7.71875 11.625 
Q 12.109375 9.234375 16.796875 8.0625 
Q 21.484375 6.890625 26.703125 6.890625 
Q 35.15625 6.890625 40.078125 11.328125 
Q 45.015625 15.765625 45.015625 23.390625 
Q 45.015625 31 40.078125 35.4375 
Q 35.15625 39.890625 26.703125 39.890625 
Q 22.75 39.890625 18.8125 39.015625 
Q 14.890625 38.140625 10.796875 36.28125 
z
" id="DejaVuSans-53"/>
      </defs>
      <g transform="translate(20.878125 38.295275)scale(0.08 -0.08)">
       <use xlink:href="#DejaVuSans-53"/>
      </g>
     </g>
    </g>
    <g id="text_16">
     <!-- R2 After filtering: Base Content Percent -->
     <defs>
      <path d="M 34.1875 63.1875 
L 20.796875 26.90625 
L 47.609375 26.90625 
z
M 28.609375 72.90625 
L 39.796875 72.90625 
L 67.578125 0 
L 57.328125 0 
L 50.6875 18.703125 
L 17.828125 18.703125 
L 11.1875 0 
L 0.78125 0 
z
" id="DejaVuSans-65"/>
      <path d="M 37.109375 75.984375 
L 37.109375 68.5 
L 28.515625 68.5 
Q 23.6875 68.5 21.796875 66.546875 
Q 19.921875 64.59375 19.921875 59.515625 
L 19.921875 54.6875 
L 34.71875 54.6875 
L 34.71875 47.703125 
L 19.921875 47.703125 
L 19.921875 0 
L 10.890625 0 
L 10.890625 47.703125 
L 2.296875 47.703125 
L 2.296875 54.6875 
L 10.890625 54.6875 
L 10.890625 58.5 
Q 10.890625 67.625 15.140625 71.796875 
Q 19.390625 75.984375 28.609375 75.984375 
z
" id="DejaVuSans-102"/>
      <path d="M 41.109375 46.296875 
Q 39.59375 47.171875 37.8125 47.578125 
Q 36.03125 48 33.890625 48 
Q 26.265625 48 22.1875 43.046875 
Q 18.109375 38.09375 18.109375 28.8125 
L 18.109375 0 
L 9.078125 0 
L 9.078125 54.6875 
L 18.109375 54.6875 
L 18.109375 46.1875 
Q 20.953125 51.171875 25.484375 53.578125 
Q 30.03125 56 36.53125 56 
Q 37.453125 56 38.578125 55.875 
Q 39.703125 55.765625 41.0625 55.515625 
z
" id="DejaVuSans-114"/>
      <path d="M 9.421875 75.984375 
L 18.40625 75.984375 
L 18.40625 0 
L 9.421875 0 
z
" id="DejaVuSans-108"/>
      <path d="M 45.40625 27.984375 
Q 45.40625 37.75 41.375 43.109375 
Q 37.359375 48.484375 30.078125 48.484375 
Q 22.859375 48.484375 18.828125 43.109375 
Q 14.796875 37.75 14.796875 27.984375 
Q 14.796875 18.265625 18.828125 12.890625 
Q 22.859375 7.515625 30.078125 7.515625 
Q 37.359375 7.515625 41.375 12.890625 
Q 45.40625 18.265625 45.40625 27.984375 
z
M 54.390625 6.78125 
Q 54.390625 -7.171875 48.1875 -13.984375 
Q 42 -20.796875 29.203125 -20.796875 
Q 24.46875 -20.796875 20.265625 -20.09375 
Q 16.0625 -19.390625 12.109375 -17.921875 
L 12.109375 -9.1875 
Q 16.0625 -11.328125 19.921875 -12.34375 
Q 23.78125 -13.375 27.78125 -13.375 
Q 36.625 -13.375 41.015625 -8.765625 
Q 45.40625 -4.15625 45.40625 5.171875 
L 45.40625 9.625 
Q 42.625 4.78125 38.28125 2.390625 
Q 33.9375 0 27.875 0 
Q 17.828125 0 11.671875 7.65625 
Q 5.515625 15.328125 5.515625 27.984375 
Q 5.515625 40.671875 11.671875 48.328125 
Q 17.828125 56 27.875 56 
Q 33.9375 56 38.28125 53.609375 
Q 42.625 51.21875 45.40625 46.390625 
L 45.40625 54.6875 
L 54.390625 54.6875 
z
" id="DejaVuSans-103"/>
      <path d="M 11.71875 12.40625 
L 22.015625 12.40625 
L 22.015625 0 
L 11.71875 0 
z
M 11.71875 51.703125 
L 22.015625 51.703125 
L 22.015625 39.3125 
L 11.71875 39.3125 
z
" id="DejaVuSans-58"/>
      <path d="M 19.671875 34.8125 
L 19.671875 8.109375 
L 35.5 8.109375 
Q 43.453125 8.109375 47.28125 11.40625 
Q 51.125 14.703125 51.125 21.484375 
Q 51.125 28.328125 47.28125 31.5625 
Q 43.453125 34.8125 35.5 34.8125 
z
M 19.671875 64.796875 
L 19.671875 42.828125 
L 34.28125 42.828125 
Q 41.5 42.828125 45.03125 45.53125 
Q 48.578125 48.25 48.578125 53.8125 
Q 48.578125 59.328125 45.03125 62.0625 
Q 41.5 64.796875 34.28125 64.796875 
z
M 9.8125 72.90625 
L 35.015625 72.90625 
Q 46.296875 72.90625 52.390625 68.21875 
Q 58.5 63.53125 58.5 54.890625 
Q 58.5 48.1875 55.375 44.234375 
Q 52.25 40.28125 46.1875 39.3125 
Q 53.46875 37.75 57.5 32.78125 
Q 61.53125 27.828125 61.53125 20.40625 
Q 61.53125 10.640625 54.890625 5.3125 
Q 48.25 0 35.984375 0 
L 9.8125 0 
z
" id="DejaVuSans-66"/>
      <path d="M 64.40625 67.28125 
L 64.40625 56.890625 
Q 59.421875 61.53125 53.78125 63.8125 
Q 48.140625 66.109375 41.796875 66.109375 
Q 29.296875 66.109375 22.65625 58.46875 
Q 16.015625 50.828125 16.015625 36.375 
Q 16.015625 21.96875 22.65625 14.328125 
Q 29.296875 6.6875 41.796875 6.6875 
Q 48.140625 6.6875 53.78125 8.984375 
Q 59.421875 11.28125 64.40625 15.921875 
L 64.40625 5.609375 
Q 59.234375 2.09375 53.4375 0.328125 
Q 47.65625 -1.421875 41.21875 -1.421875 
Q 24.65625 -1.421875 15.125 8.703125 
Q 5.609375 18.84375 5.609375 36.375 
Q 5.609375 53.953125 15.125 64.078125 
Q 24.65625 74.21875 41.21875 74.21875 
Q 47.75 74.21875 53.53125 72.484375 
Q 59.328125 70.75 64.40625 67.28125 
z
" id="DejaVuSans-67"/>
      <path d="M 48.78125 52.59375 
L 48.78125 44.1875 
Q 44.96875 46.296875 41.140625 47.34375 
Q 37.3125 48.390625 33.40625 48.390625 
Q 24.65625 48.390625 19.8125 42.84375 
Q 14.984375 37.3125 14.984375 27.296875 
Q 14.984375 17.28125 19.8125 11.734375 
Q 24.65625 6.203125 33.40625 6.203125 
Q 37.3125 6.203125 41.140625 7.25 
Q 44.96875 8.296875 48.78125 10.40625 
L 48.78125 2.09375 
Q 45.015625 0.34375 40.984375 -0.53125 
Q 36.96875 -1.421875 32.421875 -1.421875 
Q 20.0625 -1.421875 12.78125 6.34375 
Q 5.515625 14.109375 5.515625 27.296875 
Q 5.515625 40.671875 12.859375 48.328125 
Q 20.21875 56 33.015625 56 
Q 37.15625 56 41.109375 55.140625 
Q 45.0625 54.296875 48.78125 52.59375 
z
" id="DejaVuSans-99"/>
     </defs>
     <g transform="translate(14.798438 293.315681)rotate(-90)scale(0.1 -0.1)">
      <use xlink:href="#DejaVuSans-82"/>
      <use x="69.482422" xlink:href="#DejaVuSans-50"/>
      <use x="133.105469" xlink:href="#DejaVuSans-32"/>
      <use x="164.892578" xlink:href="#DejaVuSans-65"/>
      <use x="233.253906" xlink:href="#DejaVuSans-102"/>
      <use x="268.443359" xlink:href="#DejaVuSans-116"/>
      <use x="307.652344" xlink:href="#DejaVuSans-101"/>
      <use x="369.175781" xlink:href="#DejaVuSans-114"/>
      <use x="410.289062" xlink:href="#DejaVuSans-32"/>
      <use x="442.076172" xlink:href="#DejaVuSans-102"/>
      <use x="477.28125" xlink:href="#DejaVuSans-105"/>
      <use x="505.064453" xlink:href="#DejaVuSans-108"/>
      <use x="532.847656" xlink:href="#DejaVuSans-116"/>
      <use x="572.056641" xlink:href="#DejaVuSans-101"/>
      <use x="633.580078" xlink:href="#DejaVuSans-114"/>
      <use x="674.693359" xlink:href="#DejaVuSans-105"/>
      <use x="702.476562" xlink:href="#DejaVuSans-110"/>
      <use x="765.855469" xlink:href="#DejaVuSans-103"/>
      <use x="829.332031" xlink:href="#DejaVuSans-58"/>
      <use x="863.023438" xlink:href="#DejaVuSans-32"/>
      <use x="894.810547" xlink:href="#DejaVuSans-66"/>
      <use x="963.414062" xlink:href="#DejaVuSans-97"/>
      <use x="1024.693359" xlink:href="#DejaVuSans-115"/>
      <use x="1076.792969" xlink:href="#DejaVuSans-101"/>
      <use x="1138.316406" xlink:href="#DejaVuSans-32"/>
      <use x="1170.103516" xlink:href="#DejaVuSans-67"/>
      <use x="1239.927734" xlink:href="#DejaVuSans-111"/>
      <use x="1301.109375" xlink:href="#DejaVuSans-110"/>
      <use x="1364.488281" xlink:href="#DejaVuSans-116"/>
      <use x="1403.697266" xlink:href="#DejaVuSans-101"/>
      <use x="1465.220703" xlink:href="#DejaVuSans-110"/>
      <use x="1528.599609" xlink:href="#DejaVuSans-116"/>
      <use x="1567.808594" xlink:href="#DejaVuSans-32"/>
      <use x="1599.595703" xlink:href="#DejaVuSans-80"/>
      <use x="1659.851562" xlink:href="#DejaVuSans-101"/>
      <use x="1721.375" xlink:href="#DejaVuSans-114"/>
      <use x="1762.457031" xlink:href="#DejaVuSans-99"/>
      <use x="1817.4375" xlink:href="#DejaVuSans-101"/>
      <use x="1878.960938" xlink:href="#DejaVuSans-110"/>
      <use x="1942.339844" xlink:href="#DejaVuSans-116"/>
     </g>
    </g>
   </g>
   <g id="line2d_7">
    <path clip-path="url(#p1aca4e119b)" d="M 76.613125 353.2239 
L 82.471514 352.301589 
L 88.329904 353.219925 
L 199.639299 353.182157 
L 205.497689 352.605712 
L 211.356078 353.2239 
L 949.513125 353.2239 
L 949.513125 353.2239 
" style="fill:none;stroke:#7cb5ec;stroke-linecap:square;"/>
   </g>
   <g id="line2d_8">
    <path clip-path="url(#p1aca4e119b)" d="M 76.613125 353.2239 
L 82.471514 352.576339 
L 88.329904 353.2239 
L 129.338628 353.2239 
L 199.639299 353.20951 
L 205.497689 352.878535 
L 211.356078 353.2239 
L 803.053393 353.2239 
L 808.911783 353.066002 
L 814.770172 353.059537 
L 820.628561 353.2239 
L 949.513125 353.2239 
L 949.513125 353.2239 
" style="fill:none;stroke:#434348;stroke-linecap:square;"/>
   </g>
   <g id="line2d_9">
    <path clip-path="url(#p1aca4e119b)" d="M 76.613125 353.2239 
L 82.471514 352.43443 
L 88.329904 353.2239 
L 199.639299 353.205251 
L 205.497689 352.850922 
L 211.356078 353.217684 
L 305.090306 353.2239 
L 328.523863 353.21739 
L 433.97487 353.2239 
L 949.513125 353.2239 
L 949.513125 353.2239 
" style="fill:none;stroke:#90ed7d;stroke-linecap:square;"/>
   </g>
   <g id="line2d_10">
    <path clip-path="url(#p1aca4e119b)" d="M 76.613125 353.2239 
L 82.471514 351.554492 
L 88.329904 353.220333 
L 199.639299 353.191796 
L 205.497689 352.535448 
L 211.356078 353.2239 
L 949.513125 353.2239 
L 949.513125 353.2239 
" style="fill:none;stroke:#f7a35c;stroke-linecap:square;"/>
   </g>
   <g id="line2d_11">
    <path clip-path="url(#p1aca4e119b)" d="M 76.613125 353.2239 
L 82.471514 351.772891 
L 88.329904 353.2239 
L 199.639299 353.179594 
L 205.497689 352.758691 
L 211.356078 353.2239 
L 855.778897 353.2239 
L 861.637286 353.093366 
L 867.495675 353.2239 
L 949.513125 353.2239 
L 949.513125 353.2239 
" style="fill:none;stroke:#8085e9;stroke-linecap:square;"/>
   </g>
   <g id="line2d_12">
    <path clip-path="url(#p1aca4e119b)" d="M 76.613125 353.2239 
L 82.471514 351.530059 
L 88.329904 353.206256 
L 123.480239 353.2239 
L 199.639299 353.162145 
L 205.497689 352.456376 
L 211.356078 353.2239 
L 949.513125 353.2239 
L 949.513125 353.2239 
" style="fill:none;stroke:#f15c80;stroke-linecap:square;"/>
   </g>
   <g id="line2d_13">
    <path clip-path="url(#p1aca4e119b)" d="M 76.613125 353.2239 
L 82.471514 351.850463 
L 88.329904 353.2239 
L 199.639299 353.155228 
L 205.497689 352.802058 
L 211.356078 353.2239 
L 949.513125 353.2239 
L 949.513125 353.2239 
" style="fill:none;stroke:#e4d354;stroke-linecap:square;"/>
   </g>
   <g id="line2d_14">
    <path clip-path="url(#p1aca4e119b)" d="M 76.613125 353.2239 
L 82.471514 350.184056 
L 88.329904 353.2239 
L 234.789635 353.2239 
L 240.648024 351.703975 
L 246.506414 353.2239 
L 949.513125 353.2239 
L 949.513125 353.2239 
" style="fill:none;stroke:#2b908f;stroke-linecap:square;"/>
   </g>
   <g id="line2d_15">
    <path clip-path="url(#p1aca4e119b)" d="M 76.613125 353.2239 
L 82.471514 351.989421 
L 88.329904 353.223176 
L 199.639299 353.197111 
L 205.497689 352.843059 
L 211.356078 353.223176 
L 826.486951 353.2239 
L 838.203729 353.2239 
L 949.513125 353.2239 
L 949.513125 353.2239 
" style="fill:none;stroke:#f45b5b;stroke-linecap:square;"/>
   </g>
   <g id="line2d_16">
    <path clip-path="url(#p1aca4e119b)" d="M 76.613125 353.2239 
L 82.471514 351.916524 
L 88.329904 353.221376 
L 199.639299 353.193613 
L 205.497689 352.83522 
L 211.356078 353.221376 
L 474.983595 353.2239 
L 949.513125 353.2239 
L 949.513125 353.2239 
" style="fill:none;stroke:#91e8e1;stroke-linecap:square;"/>
   </g>
   <g id="line2d_17">
    <path clip-path="url(#p1aca4e119b)" d="M 76.613125 353.2239 
L 82.471514 351.637119 
L 88.329904 353.2239 
L 199.639299 353.14952 
L 205.497689 352.579271 
L 211.356078 353.2239 
L 949.513125 353.2239 
L 949.513125 353.2239 
" style="fill:none;stroke:#7cb5ec;stroke-linecap:square;"/>
   </g>
   <g id="line2d_18">
    <path clip-path="url(#p1aca4e119b)" d="M 76.613125 353.2239 
L 82.471514 350.847903 
L 88.329904 353.216393 
L 94.188293 353.214516 
L 100.046682 353.09628 
L 105.905071 353.21827 
L 187.922521 353.203255 
L 199.639299 353.122554 
L 205.497689 351.277688 
L 211.356078 353.2239 
L 310.948695 353.129105 
L 316.807085 353.102369 
L 328.523863 353.214372 
L 381.249367 353.2239 
L 392.966145 353.2239 
L 855.778897 353.200761 
L 861.637286 353.102952 
L 873.354065 353.2239 
L 926.079568 353.206156 
L 949.513125 353.2239 
L 949.513125 353.2239 
" style="fill:none;stroke:#434348;stroke-linecap:square;"/>
   </g>
   <g id="line2d_19">
    <path clip-path="url(#p1aca4e119b)" d="M 76.613125 353.2239 
L 82.471514 352.250193 
L 88.329904 353.2239 
L 199.639299 353.175816 
L 205.497689 352.550717 
L 211.356078 353.2239 
L 949.513125 353.2239 
L 949.513125 353.2239 
" style="fill:none;stroke:#90ed7d;stroke-linecap:square;"/>
   </g>
   <g id="line2d_20">
    <path clip-path="url(#p1aca4e119b)" d="M 76.613125 353.2239 
L 82.471514 352.285742 
L 88.329904 353.2239 
L 199.639299 353.186587 
L 205.497689 352.690855 
L 211.356078 353.2239 
L 949.513125 353.2239 
L 949.513125 353.2239 
" style="fill:none;stroke:#f7a35c;stroke-linecap:square;"/>
   </g>
   <g id="line2d_21">
    <path clip-path="url(#p1aca4e119b)" d="M 76.613125 353.2239 
L 82.471514 352.427206 
L 88.329904 353.2239 
L 199.639299 353.163544 
L 205.497689 352.813482 
L 211.356078 353.2239 
L 949.513125 353.2239 
L 949.513125 353.2239 
" style="fill:none;stroke:#8085e9;stroke-linecap:square;"/>
   </g>
   <g id="line2d_22">
    <path clip-path="url(#p1aca4e119b)" d="M 76.613125 353.2239 
L 82.471514 352.391053 
L 88.329904 353.2239 
L 199.639299 353.186043 
L 205.497689 352.832715 
L 211.356078 353.2239 
L 949.513125 353.2239 
L 949.513125 353.2239 
" style="fill:none;stroke:#f15c80;stroke-linecap:square;"/>
   </g>
   <g id="line2d_23">
    <path clip-path="url(#p1aca4e119b)" d="M 76.613125 353.2239 
L 82.471514 352.654258 
L 88.329904 353.2239 
L 176.205742 353.2239 
L 199.639299 353.203059 
L 205.497689 352.855717 
L 211.356078 353.2239 
L 849.920508 353.2239 
L 855.778897 353.023791 
L 873.354065 353.2239 
L 949.513125 353.2239 
L 949.513125 353.2239 
" style="fill:none;stroke:#e4d354;stroke-linecap:square;"/>
   </g>
   <g id="line2d_24">
    <path clip-path="url(#p1aca4e119b)" d="M 76.613125 353.2239 
L 82.471514 352.554647 
L 88.329904 353.2239 
L 199.639299 353.188676 
L 205.497689 352.699456 
L 211.356078 353.2239 
L 949.513125 353.2239 
L 949.513125 353.2239 
" style="fill:none;stroke:#2b908f;stroke-linecap:square;"/>
   </g>
   <g id="line2d_25">
    <path clip-path="url(#p1aca4e119b)" d="M 76.613125 353.2239 
L 82.471514 352.587875 
L 88.329904 353.2239 
L 199.639299 353.212742 
L 205.497689 352.889148 
L 211.356078 353.2239 
L 826.486951 353.2239 
L 832.34534 353.087958 
L 838.203729 353.2239 
L 949.513125 353.2239 
L 949.513125 353.2239 
" style="fill:none;stroke:#f45b5b;stroke-linecap:square;"/>
   </g>
   <g id="line2d_26">
    <path clip-path="url(#p1aca4e119b)" d="M 76.613125 353.2239 
L 82.471514 352.392172 
L 88.329904 353.222129 
L 199.639299 353.18974 
L 205.497689 352.671018 
L 211.356078 353.222888 
L 797.195004 353.2239 
L 832.34534 353.20879 
L 855.778897 353.219545 
L 867.495675 353.22156 
L 949.513125 353.2239 
L 949.513125 353.2239 
" style="fill:none;stroke:#91e8e1;stroke-linecap:square;"/>
   </g>
   <g id="line2d_27">
    <path clip-path="url(#p1aca4e119b)" d="M 76.613125 353.2239 
L 82.471514 351.906253 
L 88.329904 353.220129 
L 199.639299 353.163299 
L 205.497689 352.29275 
L 211.356078 353.222382 
L 680.027219 353.221364 
L 721.035944 353.2239 
L 949.513125 353.2239 
L 949.513125 353.2239 
" style="fill:none;stroke:#7cb5ec;stroke-linecap:square;"/>
   </g>
   <g id="line2d_28">
    <path clip-path="url(#p1aca4e119b)" d="M 76.613125 353.2239 
L 82.471514 352.502882 
L 88.329904 353.2239 
L 199.639299 353.2239 
L 205.497689 352.791291 
L 211.356078 353.2239 
L 896.787622 353.2239 
L 902.646011 353.056164 
L 908.5044 353.2239 
L 949.513125 353.2239 
L 949.513125 353.2239 
" style="fill:none;stroke:#434348;stroke-linecap:square;"/>
   </g>
   <g id="line2d_29">
    <path clip-path="url(#p1aca4e119b)" d="M 76.613125 353.2239 
L 82.471514 352.618213 
L 88.329904 353.2239 
L 199.639299 353.204362 
L 205.497689 352.794058 
L 211.356078 353.2239 
L 855.778897 353.2239 
L 861.637286 352.991578 
L 867.495675 353.2239 
L 949.513125 353.2239 
L 949.513125 353.2239 
" style="fill:none;stroke:#90ed7d;stroke-linecap:square;"/>
   </g>
   <g id="line2d_30">
    <path clip-path="url(#p1aca4e119b)" d="M 76.613125 353.2239 
L 82.471514 352.431842 
L 88.329904 353.2239 
L 117.62185 353.2239 
L 199.639299 353.191789 
L 205.497689 352.742242 
L 211.356078 353.2239 
L 873.354065 353.2239 
L 879.212454 353.079281 
L 885.070843 353.2239 
L 890.929232 353.2239 
L 896.787622 353.068224 
L 902.646011 353.2239 
L 949.513125 353.2239 
L 949.513125 353.2239 
" style="fill:none;stroke:#f7a35c;stroke-linecap:square;"/>
   </g>
   <g id="line2d_31">
    <path clip-path="url(#p1aca4e119b)" d="M 76.613125 353.2239 
L 82.471514 352.722283 
L 88.329904 353.222524 
L 199.639299 353.195013 
L 205.497689 352.869925 
L 211.356078 353.222983 
L 855.778897 353.2239 
L 861.637286 353.149846 
L 873.354065 353.2239 
L 902.646011 353.2239 
L 949.513125 353.2239 
L 949.513125 353.2239 
" style="fill:none;stroke:#8085e9;stroke-linecap:square;"/>
   </g>
   <g id="line2d_32">
    <path clip-path="url(#p1aca4e119b)" d="M 76.613125 353.2239 
L 82.471514 352.783304 
L 88.329904 353.2239 
L 135.197018 353.2239 
L 199.639299 353.210549 
L 205.497689 352.876764 
L 211.356078 353.2239 
L 756.186279 353.2239 
L 762.044669 353.041265 
L 767.903058 353.2239 
L 949.513125 353.2239 
L 949.513125 353.2239 
" style="fill:none;stroke:#f15c80;stroke-linecap:square;"/>
   </g>
   <g id="line2d_33">
    <path clip-path="url(#p1aca4e119b)" d="M 76.613125 353.2239 
L 82.471514 352.715325 
L 88.329904 353.220926 
L 199.639299 353.192672 
L 205.497689 352.898233 
L 211.356078 353.2239 
L 949.513125 353.2239 
L 949.513125 353.2239 
" style="fill:none;stroke:#e4d354;stroke-linecap:square;"/>
   </g>
   <g id="line2d_34">
    <path clip-path="url(#p1aca4e119b)" d="M 76.613125 353.2239 
L 82.471514 352.671672 
L 88.329904 353.2239 
L 199.639299 353.168677 
L 205.497689 352.69008 
L 211.356078 353.2239 
L 709.319165 353.2239 
L 715.177555 353.100114 
L 721.035944 353.2239 
L 949.513125 353.2239 
L 949.513125 353.2239 
" style="fill:none;stroke:#2b908f;stroke-linecap:square;"/>
   </g>
   <g id="line2d_35">
    <path clip-path="url(#p1aca4e119b)" d="M 76.613125 353.2239 
L 82.471514 353.112866 
L 88.329904 353.2239 
L 111.763461 353.2239 
L 199.639299 353.196141 
L 205.497689 352.974073 
L 211.356078 353.2239 
L 949.513125 353.2239 
L 949.513125 353.2239 
" style="fill:none;stroke:#f45b5b;stroke-linecap:square;"/>
   </g>
   <g id="line2d_36">
    <path clip-path="url(#p1aca4e119b)" d="M 76.613125 353.2239 
L 82.471514 352.785978 
L 88.329904 353.21102 
L 123.480239 353.2239 
L 141.055407 353.21102 
L 187.922521 353.19814 
L 199.639299 353.19814 
L 205.497689 352.992059 
L 211.356078 353.2239 
L 808.911783 353.2239 
L 814.770172 352.448274 
L 820.628561 353.2239 
L 949.513125 353.2239 
L 949.513125 353.2239 
" style="fill:none;stroke:#91e8e1;stroke-linecap:square;"/>
   </g>
   <g id="line2d_37">
    <path clip-path="url(#p1aca4e119b)" d="M 76.613125 353.2239 
L 82.471514 352.8363 
L 88.329904 353.2239 
L 187.922521 353.2239 
L 193.78091 353.0947 
L 199.639299 353.2239 
L 205.497689 352.9009 
L 211.356078 353.2239 
L 334.382253 353.2239 
L 340.240642 353.083183 
L 346.099031 353.2239 
L 949.513125 353.2239 
L 949.513125 353.2239 
" style="fill:none;stroke:#7cb5ec;stroke-linecap:square;"/>
   </g>
   <g id="line2d_38">
    <path clip-path="url(#p1aca4e119b)" d="M 76.613125 353.2239 
L 82.471514 352.233722 
L 88.329904 353.2239 
L 146.913796 353.213403 
L 199.639299 353.188912 
L 205.497689 352.520631 
L 211.356078 353.2239 
L 949.513125 353.2239 
L 949.513125 353.2239 
" style="fill:none;stroke:#434348;stroke-linecap:square;"/>
   </g>
   <g id="line2d_39">
    <path clip-path="url(#p1aca4e119b)" d="M 76.613125 353.2239 
L 82.471514 352.672686 
L 88.329904 353.2239 
L 187.922521 353.2239 
L 193.78091 352.856424 
L 199.639299 353.040162 
L 205.497689 352.121473 
L 211.356078 353.2239 
L 223.072857 353.2239 
L 228.931246 353.040162 
L 234.789635 353.2239 
L 310.948695 353.2239 
L 316.807085 352.843828 
L 328.523863 353.2239 
L 873.354065 353.2239 
L 879.212454 348.52371 
L 885.070843 353.2239 
L 949.513125 353.2239 
L 949.513125 353.2239 
" style="fill:none;stroke:#90ed7d;stroke-linecap:square;"/>
   </g>
   <g id="line2d_40">
    <path clip-path="url(#p1aca4e119b)" d="M 76.613125 353.2239 
L 82.471514 352.662445 
L 88.329904 353.2239 
L 199.639299 353.2239 
L 205.497689 352.911981 
L 211.356078 353.2239 
L 949.513125 353.2239 
L 949.513125 353.2239 
" style="fill:none;stroke:#f7a35c;stroke-linecap:square;"/>
   </g>
   <g id="line2d_41">
    <path clip-path="url(#p1aca4e119b)" d="M 76.613125 353.2239 
L 82.471514 352.740129 
L 88.329904 353.195443 
L 111.763461 353.2239 
L 199.639299 353.2239 
L 205.497689 353.110072 
L 211.356078 353.2239 
L 949.513125 353.2239 
L 949.513125 353.2239 
" style="fill:none;stroke:#8085e9;stroke-linecap:square;"/>
   </g>
   <g id="line2d_42">
    <path clip-path="url(#p1aca4e119b)" d="M 76.613125 353.2239 
L 82.471514 352.863106 
L 88.329904 353.2239 
L 111.763461 353.2239 
L 199.639299 353.175794 
L 205.497689 352.839053 
L 211.356078 353.2239 
L 949.513125 353.2239 
L 949.513125 353.2239 
" style="fill:none;stroke:#f15c80;stroke-linecap:square;"/>
   </g>
   <g id="line2d_43">
    <path clip-path="url(#p1aca4e119b)" d="M 76.613125 353.2239 
L 82.471514 352.350493 
L 88.329904 353.221876 
L 199.639299 353.173741 
L 205.497689 352.553159 
L 211.356078 353.223225 
L 855.778897 353.216097 
L 861.637286 353.098206 
L 867.495675 353.217777 
L 949.513125 353.2239 
L 949.513125 353.2239 
" style="fill:none;stroke:#e4d354;stroke-linecap:square;"/>
   </g>
   <g id="line2d_44">
    <path clip-path="url(#p1aca4e119b)" d="M 76.613125 353.2239 
L 82.471514 352.828894 
L 88.329904 353.2239 
L 199.639299 353.17602 
L 205.497689 352.924653 
L 211.356078 353.2239 
L 949.513125 353.2239 
L 949.513125 353.2239 
" style="fill:none;stroke:#2b908f;stroke-linecap:square;"/>
   </g>
   <g id="line2d_45">
    <path clip-path="url(#p1aca4e119b)" d="M 76.613125 353.2239 
L 82.471514 352.574902 
L 88.329904 353.222067 
L 199.639299 353.19702 
L 205.497689 352.808884 
L 211.356078 353.222475 
L 738.611112 353.2239 
L 885.070843 353.2239 
L 949.513125 353.2239 
L 949.513125 353.2239 
" style="fill:none;stroke:#f45b5b;stroke-linecap:square;"/>
   </g>
   <g id="line2d_46">
    <path clip-path="url(#p1aca4e119b)" d="M 76.613125 353.2239 
L 82.471514 352.488599 
L 88.329904 353.221681 
L 199.639299 353.194524 
L 205.497689 352.753108 
L 211.356078 353.222333 
L 668.31044 353.2239 
L 949.513125 353.2239 
L 949.513125 353.2239 
" style="fill:none;stroke:#91e8e1;stroke-linecap:square;"/>
   </g>
   <g id="line2d_47">
    <path clip-path="url(#p1aca4e119b)" d="M 76.613125 353.2239 
L 82.471514 352.624509 
L 88.329904 353.222018 
L 199.639299 353.196926 
L 205.497689 352.810505 
L 211.356078 353.223273 
L 949.513125 353.2239 
L 949.513125 353.2239 
" style="fill:none;stroke:#7cb5ec;stroke-linecap:square;"/>
   </g>
   <g id="line2d_48">
    <path clip-path="url(#p1aca4e119b)" d="M 76.613125 353.2239 
L 82.471514 352.539868 
L 88.329904 353.2239 
L 158.630575 353.2239 
L 199.639299 353.185237 
L 205.497689 352.801584 
L 211.356078 353.2239 
L 949.513125 353.2239 
L 949.513125 353.2239 
" style="fill:none;stroke:#434348;stroke-linecap:square;"/>
   </g>
   <g id="line2d_49">
    <path clip-path="url(#p1aca4e119b)" d="M 76.613125 353.2239 
L 82.471514 352.691118 
L 88.329904 353.2239 
L 117.62185 353.2239 
L 199.639299 353.204872 
L 205.497689 352.957509 
L 211.356078 353.2239 
L 949.513125 353.2239 
L 949.513125 353.2239 
" style="fill:none;stroke:#90ed7d;stroke-linecap:square;"/>
   </g>
   <g id="line2d_50">
    <path clip-path="url(#p1aca4e119b)" d="M 76.613125 353.2239 
L 82.471514 352.656018 
L 88.329904 353.218387 
L 199.639299 353.212873 
L 205.497689 352.749746 
L 211.356078 353.2239 
L 949.513125 353.2239 
L 949.513125 353.2239 
" style="fill:none;stroke:#f7a35c;stroke-linecap:square;"/>
   </g>
   <g id="line2d_51">
    <path clip-path="url(#p1aca4e119b)" d="M 76.613125 353.2239 
L 82.471514 352.758348 
L 88.329904 353.2239 
L 199.639299 353.186656 
L 205.497689 352.870081 
L 211.356078 353.2239 
L 949.513125 353.2239 
L 949.513125 353.2239 
" style="fill:none;stroke:#8085e9;stroke-linecap:square;"/>
   </g>
   <g id="line2d_52">
    <path clip-path="url(#p1aca4e119b)" d="M 76.613125 353.2239 
L 82.471514 352.52306 
L 88.329904 353.2239 
L 199.639299 353.2239 
L 205.497689 352.714198 
L 211.356078 353.2239 
L 545.284266 353.2239 
L 551.142655 353.089821 
L 557.001044 353.2239 
L 703.460776 353.2239 
L 709.319165 352.88865 
L 715.177555 353.2239 
L 949.513125 353.2239 
L 949.513125 353.2239 
" style="fill:none;stroke:#f15c80;stroke-linecap:square;"/>
   </g>
   <g id="line2d_53">
    <path clip-path="url(#p1aca4e119b)" d="M 76.613125 353.2239 
L 82.471514 352.607403 
L 88.329904 353.221082 
L 199.639299 353.192899 
L 205.497689 352.748317 
L 211.356078 353.221786 
L 498.417152 353.217436 
L 551.142655 353.21203 
L 609.726548 353.2239 
L 867.495675 353.2239 
L 949.513125 353.2239 
L 949.513125 353.2239 
" style="fill:none;stroke:#e4d354;stroke-linecap:square;"/>
   </g>
   <g id="line2d_54">
    <path clip-path="url(#p1aca4e119b)" d="M 76.613125 353.2239 
L 82.471514 351.129782 
L 88.329904 353.220982 
L 170.347353 353.218794 
L 199.639299 353.143666 
L 205.497689 351.584203 
L 211.356078 353.2239 
L 310.948695 353.164182 
L 316.807085 353.103276 
L 328.523863 353.211063 
L 381.249367 353.2239 
L 398.824534 353.2239 
L 668.31044 353.2239 
L 949.513125 353.2239 
L 949.513125 353.2239 
" style="fill:none;stroke:#2b908f;stroke-linecap:square;"/>
   </g>
   <g id="line2d_55">
    <path clip-path="url(#p1aca4e119b)" d="M 76.613125 353.2239 
L 82.471514 351.297071 
L 88.329904 353.222523 
L 152.772185 353.214262 
L 193.78091 353.199118 
L 199.639299 353.149553 
L 205.497689 351.731454 
L 211.356078 353.221835 
L 310.948695 353.169691 
L 322.665474 353.194104 
L 363.674199 353.217313 
L 416.399702 353.222366 
L 797.195004 353.2239 
L 861.637286 353.119494 
L 873.354065 353.220119 
L 949.513125 353.2239 
L 949.513125 353.2239 
" style="fill:none;stroke:#f45b5b;stroke-linecap:square;"/>
   </g>
   <g id="line2d_56">
    <path clip-path="url(#p1aca4e119b)" d="M 76.613125 353.2239 
L 82.471514 351.646569 
L 88.329904 353.221537 
L 199.639299 353.142375 
L 205.497689 351.856879 
L 211.356078 353.222718 
L 744.469501 353.221618 
L 879.212454 353.220614 
L 949.513125 353.2239 
L 949.513125 353.2239 
" style="fill:none;stroke:#91e8e1;stroke-linecap:square;"/>
   </g>
   <g id="line2d_57">
    <path clip-path="url(#p1aca4e119b)" d="M 76.613125 353.2239 
L 82.471514 351.318776 
L 88.329904 353.217977 
L 199.639299 353.146905 
L 205.497689 351.603064 
L 211.356078 353.2239 
L 949.513125 353.2239 
L 949.513125 353.2239 
" style="fill:none;stroke:#7cb5ec;stroke-linecap:square;"/>
   </g>
   <g id="line2d_58">
    <path clip-path="url(#p1aca4e119b)" d="M 76.613125 353.2239 
L 82.471514 350.863458 
L 88.329904 353.220466 
L 152.772185 353.212618 
L 193.78091 353.188091 
L 199.639299 353.144433 
L 205.497689 351.5139 
L 211.356078 353.223409 
L 855.778897 353.212784 
L 861.637286 353.144894 
L 873.354065 353.222842 
L 949.513125 353.2239 
L 949.513125 353.2239 
" style="fill:none;stroke:#434348;stroke-linecap:square;"/>
   </g>
   <g id="line2d_59">
    <path clip-path="url(#p1aca4e119b)" d="M 76.613125 353.2239 
L 82.471514 350.526463 
L 88.329904 353.220379 
L 170.347353 353.21897 
L 193.78091 353.170374 
L 199.639299 353.110861 
L 205.497689 351.163843 
L 211.356078 353.223196 
L 310.948695 353.158345 
L 316.807085 353.080248 
L 328.523863 353.20755 
L 363.674199 353.218527 
L 392.966145 353.223539 
L 949.513125 353.2239 
L 949.513125 353.2239 
" style="fill:none;stroke:#90ed7d;stroke-linecap:square;"/>
   </g>
   <g id="line2d_60">
    <path clip-path="url(#p1aca4e119b)" d="M 76.613125 353.2239 
L 82.471514 351.333682 
L 88.329904 353.222166 
L 199.639299 353.148754 
L 205.497689 351.761438 
L 211.356078 353.222744 
L 680.027219 353.222903 
L 709.319165 353.212188 
L 808.911783 353.212995 
L 949.513125 353.2239 
L 949.513125 353.2239 
" style="fill:none;stroke:#f7a35c;stroke-linecap:square;"/>
   </g>
   <g id="line2d_61">
    <path clip-path="url(#p1aca4e119b)" d="M 76.613125 353.2239 
L 82.471514 350.523665 
L 88.329904 353.220557 
L 152.772185 353.213872 
L 193.78091 353.178775 
L 199.639299 353.116938 
L 205.497689 351.131454 
L 211.356078 353.2239 
L 310.948695 353.169889 
L 316.807085 353.090352 
L 328.523863 353.210897 
L 381.249367 353.2239 
L 387.107756 353.160431 
L 398.824534 353.22332 
L 685.885608 353.198471 
L 721.035944 353.2239 
L 949.513125 353.2239 
L 949.513125 353.2239 
" style="fill:none;stroke:#8085e9;stroke-linecap:square;"/>
   </g>
   <g id="line2d_62">
    <path clip-path="url(#p1aca4e119b)" d="M 76.613125 353.2239 
L 82.471514 350.569268 
L 88.329904 353.219392 
L 129.338628 353.190845 
L 152.772185 353.215185 
L 193.78091 353.185436 
L 199.639299 353.098892 
L 205.497689 351.029641 
L 211.356078 353.222998 
L 310.948695 353.154531 
L 316.807085 353.072087 
L 328.523863 353.208594 
L 381.249367 353.2239 
L 392.966145 353.223585 
L 855.778897 353.209705 
L 861.637286 353.10193 
L 867.495675 353.218878 
L 949.513125 353.2239 
L 949.513125 353.2239 
" style="fill:none;stroke:#f15c80;stroke-linecap:square;"/>
   </g>
   <g id="line2d_63">
    <path clip-path="url(#p1aca4e119b)" d="M 76.613125 353.2239 
L 82.471514 350.632887 
L 88.329904 353.222766 
L 129.338628 353.19782 
L 158.630575 353.219364 
L 193.78091 353.177409 
L 199.639299 353.114665 
L 205.497689 351.177929 
L 211.356078 353.223144 
L 310.948695 353.152062 
L 316.807085 353.07806 
L 328.523863 353.21391 
L 433.97487 353.222696 
L 949.513125 353.2239 
L 949.513125 353.2239 
" style="fill:none;stroke:#e4d354;stroke-linecap:square;"/>
   </g>
   <g id="line2d_64">
    <path clip-path="url(#p1aca4e119b)" d="M 76.613125 353.2239 
L 82.471514 351.48057 
L 88.329904 353.221528 
L 146.913796 353.202553 
L 193.78091 353.202553 
L 199.639299 353.139698 
L 205.497689 351.614581 
L 211.356078 353.2239 
L 949.513125 353.2239 
L 949.513125 353.2239 
" style="fill:none;stroke:#2b908f;stroke-linecap:square;"/>
   </g>
   <g id="line2d_65">
    <path clip-path="url(#p1aca4e119b)" d="M 76.613125 353.2239 
L 82.471514 351.370859 
L 88.329904 353.2239 
L 129.338628 353.187898 
L 146.913796 353.200605 
L 182.064132 353.219664 
L 199.639299 353.145543 
L 205.497689 351.66311 
L 211.356078 353.2239 
L 533.567487 353.213267 
L 598.009769 353.2239 
L 949.513125 353.2239 
L 949.513125 353.2239 
" style="fill:none;stroke:#f45b5b;stroke-linecap:square;"/>
   </g>
   <g id="line2d_66">
    <path clip-path="url(#p1aca4e119b)" d="M 76.613125 353.2239 
L 82.471514 351.5833 
L 88.329904 353.222101 
L 199.639299 353.167234 
L 205.497689 351.888212 
L 211.356078 353.2239 
L 949.513125 353.2239 
L 949.513125 353.2239 
" style="fill:none;stroke:#91e8e1;stroke-linecap:square;"/>
   </g>
   <g id="line2d_67">
    <path clip-path="url(#p1aca4e119b)" d="M 76.613125 353.2239 
L 82.471514 351.04919 
L 88.329904 353.220404 
L 199.639299 353.126003 
L 205.497689 351.262464 
L 211.356078 353.2239 
L 310.948695 353.163641 
L 316.807085 353.099554 
L 328.523863 353.206051 
L 375.390977 353.212945 
L 469.125206 353.2239 
L 639.018494 353.219111 
L 773.761447 353.2239 
L 879.212454 353.2239 
L 949.513125 353.2239 
L 949.513125 353.2239 
" style="fill:none;stroke:#7cb5ec;stroke-linecap:square;"/>
   </g>
   <g id="line2d_68">
    <path clip-path="url(#p1aca4e119b)" d="M 76.613125 353.2239 
L 82.471514 351.254063 
L 88.329904 353.221071 
L 199.639299 353.147992 
L 205.497689 351.739689 
L 211.356078 353.223429 
L 855.778897 353.213399 
L 861.637286 353.158711 
L 873.354065 353.220228 
L 949.513125 353.2239 
L 949.513125 353.2239 
" style="fill:none;stroke:#434348;stroke-linecap:square;"/>
   </g>
   <g id="line2d_69">
    <path clip-path="url(#p1aca4e119b)" d="M 76.613125 353.2239 
L 82.471514 351.260511 
L 88.329904 353.222347 
L 199.639299 353.151671 
L 205.497689 351.82514 
L 211.356078 353.2239 
L 949.513125 353.2239 
L 949.513125 353.2239 
" style="fill:none;stroke:#90ed7d;stroke-linecap:square;"/>
   </g>
   <g id="line2d_70">
    <path clip-path="url(#p1aca4e119b)" d="M 76.613125 353.2239 
L 82.471514 350.648321 
L 88.329904 353.22084 
L 158.630575 353.221605 
L 193.78091 353.186035 
L 199.639299 353.101508 
L 205.497689 351.178812 
L 211.356078 353.223135 
L 949.513125 353.2239 
L 949.513125 353.2239 
" style="fill:none;stroke:#f7a35c;stroke-linecap:square;"/>
   </g>
   <g id="line2d_71">
    <path clip-path="url(#p1aca4e119b)" d="M 76.613125 353.2239 
L 82.471514 351.011542 
L 88.329904 353.221091 
L 158.630575 353.222495 
L 199.639299 353.126978 
L 205.497689 351.449098 
L 211.356078 353.222495 
L 310.948695 353.170865 
L 322.665474 353.187101 
L 357.81581 353.2239 
L 574.576212 353.2239 
L 949.513125 353.2239 
L 949.513125 353.2239 
" style="fill:none;stroke:#8085e9;stroke-linecap:square;"/>
   </g>
   <g id="line2d_72">
    <path clip-path="url(#p1aca4e119b)" d="M 76.613125 353.2239 
L 82.471514 351.054856 
L 88.329904 353.221285 
L 146.913796 353.210172 
L 193.78091 353.194483 
L 199.639299 353.129764 
L 205.497689 351.553646 
L 211.356078 353.221285 
L 310.948695 353.175087 
L 322.665474 353.183491 
L 357.81581 353.22321 
L 832.34534 353.1913 
L 855.778897 353.219605 
L 861.637286 353.152785 
L 873.354065 353.2239 
L 949.513125 353.2239 
L 949.513125 353.2239 
" style="fill:none;stroke:#f15c80;stroke-linecap:square;"/>
   </g>
   <g id="line2d_73">
    <path clip-path="url(#p1aca4e119b)" d="M 76.613125 353.2239 
L 82.471514 351.651014 
L 88.329904 353.222253 
L 129.338628 353.202489 
L 164.488964 353.2239 
L 199.639299 353.167079 
L 205.497689 352.027355 
L 211.356078 353.223077 
L 855.778897 353.21379 
L 867.495675 353.218659 
L 949.513125 353.2239 
L 949.513125 353.2239 
" style="fill:none;stroke:#e4d354;stroke-linecap:square;"/>
   </g>
   <g id="line2d_74">
    <path clip-path="url(#p1aca4e119b)" d="M 76.613125 353.2239 
L 82.471514 350.951224 
L 88.329904 353.216955 
L 199.639299 353.127437 
L 205.497689 351.475216 
L 211.356078 353.223128 
L 310.948695 353.161794 
L 316.807085 353.11431 
L 328.523863 353.208828 
L 375.390977 353.213305 
L 439.833259 353.222201 
L 797.195004 353.2239 
L 832.34534 353.201987 
L 855.778897 353.21564 
L 861.637286 353.145176 
L 873.354065 353.222177 
L 949.513125 353.2239 
L 949.513125 353.2239 
" style="fill:none;stroke:#2b908f;stroke-linecap:square;"/>
   </g>
   <g id="line2d_75">
    <path clip-path="url(#p1aca4e119b)" d="M 76.613125 353.2239 
L 82.471514 350.878574 
L 88.329904 353.221476 
L 152.772185 353.217437 
L 193.78091 353.1932 
L 199.639299 353.133415 
L 205.497689 351.480456 
L 211.356078 353.223092 
L 310.948695 353.173063 
L 316.807085 353.108005 
L 334.382253 353.222243 
L 855.778897 353.218764 
L 861.637286 353.144049 
L 873.354065 353.220328 
L 949.513125 353.2239 
L 949.513125 353.2239 
" style="fill:none;stroke:#f45b5b;stroke-linecap:square;"/>
   </g>
   <g id="line2d_76">
    <path clip-path="url(#p1aca4e119b)" d="M 76.613125 353.2239 
L 82.471514 351.219016 
L 88.329904 353.222868 
L 152.772185 353.216677 
L 199.639299 353.137224 
L 205.497689 351.902101 
L 211.356078 353.222868 
L 744.469501 353.221819 
L 767.903058 353.2239 
L 949.513125 353.2239 
L 949.513125 353.2239 
" style="fill:none;stroke:#91e8e1;stroke-linecap:square;"/>
   </g>
   <g id="line2d_77">
    <path clip-path="url(#p1aca4e119b)" d="M 76.613125 353.2239 
L 82.471514 350.926956 
L 88.329904 353.222187 
L 135.197018 353.223329 
L 199.639299 353.145108 
L 205.497689 351.487063 
L 211.356078 353.2239 
L 949.513125 353.2239 
L 949.513125 353.2239 
" style="fill:none;stroke:#7cb5ec;stroke-linecap:square;"/>
   </g>
   <g id="line2d_78">
    <path clip-path="url(#p1aca4e119b)" d="M 76.613125 353.2239 
L 82.471514 351.016706 
L 88.329904 353.2239 
L 199.639299 353.140752 
L 205.497689 351.625615 
L 211.356078 353.2239 
L 310.948695 353.175856 
L 316.807085 353.103391 
L 328.523863 353.210899 
L 381.249367 353.2239 
L 392.966145 353.2239 
L 949.513125 353.2239 
L 949.513125 353.2239 
" style="fill:none;stroke:#434348;stroke-linecap:square;"/>
   </g>
   <g id="line2d_79">
    <path clip-path="url(#p1aca4e119b)" d="M 76.613125 353.2239 
L 82.471514 351.018226 
L 88.329904 353.22285 
L 199.639299 353.135673 
L 205.497689 351.687275 
L 211.356078 353.2239 
L 949.513125 353.2239 
L 949.513125 353.2239 
" style="fill:none;stroke:#90ed7d;stroke-linecap:square;"/>
   </g>
   <g id="line2d_80">
    <path clip-path="url(#p1aca4e119b)" d="M 76.613125 353.2239 
L 82.471514 351.346509 
L 88.329904 353.222721 
L 164.488964 353.2239 
L 199.639299 353.160259 
L 205.497689 351.837954 
L 211.356078 353.2239 
L 949.513125 353.2239 
L 949.513125 353.2239 
" style="fill:none;stroke:#f7a35c;stroke-linecap:square;"/>
   </g>
   <g id="line2d_81">
    <path clip-path="url(#p1aca4e119b)" d="M 76.613125 353.2239 
L 82.471514 351.309497 
L 88.329904 353.221211 
L 199.639299 353.094839 
L 205.497689 351.621392 
L 211.356078 353.2239 
L 949.513125 353.2239 
L 949.513125 353.2239 
" style="fill:none;stroke:#8085e9;stroke-linecap:square;"/>
   </g>
   <g id="line2d_82">
    <path clip-path="url(#p1aca4e119b)" d="M 76.613125 353.2239 
L 82.471514 351.656578 
L 88.329904 353.2239 
L 199.639299 353.106782 
L 205.497689 351.846037 
L 211.356078 353.2239 
L 949.513125 353.2239 
L 949.513125 353.2239 
" style="fill:none;stroke:#f15c80;stroke-linecap:square;"/>
   </g>
   <g id="line2d_83">
    <path clip-path="url(#p1aca4e119b)" d="M 76.613125 353.2239 
L 82.471514 351.560826 
L 88.329904 353.222675 
L 199.639299 353.147972 
L 205.497689 351.925777 
L 211.356078 353.2239 
L 949.513125 353.2239 
L 949.513125 353.2239 
" style="fill:none;stroke:#e4d354;stroke-linecap:square;"/>
   </g>
   <g id="line2d_84">
    <path clip-path="url(#p1aca4e119b)" d="M 76.613125 353.2239 
L 82.471514 350.94089 
L 88.329904 353.219749 
L 146.913796 353.205221 
L 193.78091 353.187579 
L 199.639299 353.106636 
L 205.497689 351.43589 
L 211.356078 353.223381 
L 310.948695 353.169833 
L 316.807085 353.116469 
L 328.523863 353.212652 
L 381.249367 353.2239 
L 392.966145 353.223341 
L 855.778897 353.215086 
L 861.637286 353.144631 
L 873.354065 353.220459 
L 949.513125 353.2239 
L 949.513125 353.2239 
" style="fill:none;stroke:#2b908f;stroke-linecap:square;"/>
   </g>
   <g id="line2d_85">
    <path clip-path="url(#p1aca4e119b)" d="M 76.613125 353.2239 
L 82.471514 350.479455 
L 88.329904 353.219902 
L 135.197018 353.222401 
L 193.78091 353.166183 
L 199.639299 353.071486 
L 205.497689 350.945443 
L 211.356078 353.22315 
L 310.948695 353.148852 
L 316.807085 353.077866 
L 328.523863 353.210441 
L 381.249367 353.2239 
L 392.966145 353.2239 
L 949.513125 353.2239 
L 949.513125 353.2239 
" style="fill:none;stroke:#f45b5b;stroke-linecap:square;"/>
   </g>
   <g id="line2d_86">
    <path clip-path="url(#p1aca4e119b)" d="M 76.613125 353.2239 
L 82.471514 351.313529 
L 88.329904 353.222432 
L 170.347353 353.217295 
L 199.639299 353.138766 
L 205.497689 351.74947 
L 211.356078 353.2239 
L 949.513125 353.2239 
L 949.513125 353.2239 
" style="fill:none;stroke:#91e8e1;stroke-linecap:square;"/>
   </g>
   <g id="line2d_87">
    <path clip-path="url(#p1aca4e119b)" d="M 76.613125 353.2239 
L 82.471514 351.219048 
L 88.329904 353.221342 
L 146.913796 353.211109 
L 199.639299 353.139476 
L 205.497689 351.687212 
L 211.356078 353.2239 
L 949.513125 353.2239 
L 949.513125 353.2239 
" style="fill:none;stroke:#7cb5ec;stroke-linecap:square;"/>
   </g>
   <g id="line2d_88">
    <path clip-path="url(#p1aca4e119b)" d="M 76.613125 353.2239 
L 82.471514 351.849305 
L 88.329904 353.222812 
L 152.772185 353.216281 
L 199.639299 353.174924 
L 205.497689 352.113778 
L 211.356078 353.221723 
L 492.558763 353.222387 
L 557.001044 353.2239 
L 949.513125 353.2239 
L 949.513125 353.2239 
" style="fill:none;stroke:#434348;stroke-linecap:square;"/>
   </g>
   <g id="line2d_89">
    <path clip-path="url(#p1aca4e119b)" d="M 76.613125 353.2239 
L 82.471514 351.625621 
L 88.329904 353.2239 
L 199.639299 353.160602 
L 205.497689 351.862991 
L 211.356078 353.2239 
L 310.948695 353.180154 
L 316.807085 353.09188 
L 328.523863 353.212757 
L 457.408427 353.2239 
L 551.142655 353.20086 
L 580.434602 353.2239 
L 855.778897 353.208478 
L 861.637286 353.082889 
L 873.354065 353.2239 
L 949.513125 353.2239 
L 949.513125 353.2239 
" style="fill:none;stroke:#90ed7d;stroke-linecap:square;"/>
   </g>
   <g id="line2d_90">
    <path clip-path="url(#p1aca4e119b)" d="M 76.613125 353.2239 
L 82.471514 351.398554 
L 88.329904 353.2239 
L 100.046682 353.079966 
L 105.905071 353.210815 
L 158.630575 353.2239 
L 199.639299 353.138848 
L 205.497689 351.928492 
L 211.356078 353.2239 
L 949.513125 353.2239 
L 949.513125 353.2239 
" style="fill:none;stroke:#f7a35c;stroke-linecap:square;"/>
   </g>
   <g id="line2d_91">
    <path clip-path="url(#p1aca4e119b)" d="M 76.613125 353.2239 
L 82.471514 352.303618 
L 88.329904 353.2239 
L 199.639299 353.17303 
L 205.497689 352.479352 
L 211.356078 353.2239 
L 949.513125 353.2239 
L 949.513125 353.2239 
" style="fill:none;stroke:#8085e9;stroke-linecap:square;"/>
   </g>
   <g id="line2d_92">
    <path clip-path="url(#p1aca4e119b)" d="M 76.613125 353.2239 
L 82.471514 350.008067 
L 88.329904 353.220179 
L 94.188293 353.205007 
L 100.046682 353.063595 
L 105.905071 353.21016 
L 182.064132 353.222755 
L 199.639299 353.092507 
L 205.497689 350.64385 
L 211.356078 353.223041 
L 310.948695 353.138594 
L 316.807085 353.050815 
L 328.523863 353.210893 
L 381.249367 353.2239 
L 387.107756 353.147045 
L 398.824534 353.223314 
L 527.709098 353.206772 
L 674.16883 353.222515 
L 908.5044 353.216875 
L 949.513125 353.2239 
L 949.513125 353.2239 
" style="fill:none;stroke:#f15c80;stroke-linecap:square;"/>
   </g>
   <g id="line2d_93">
    <path clip-path="url(#p1aca4e119b)" d="M 76.613125 353.2239 
L 82.471514 350.582139 
L 88.329904 353.221174 
L 129.338628 353.192548 
L 152.772185 353.21663 
L 193.78091 353.186187 
L 199.639299 353.117575 
L 205.497689 351.247347 
L 211.356078 353.222537 
L 310.948695 353.156297 
L 316.807085 353.104575 
L 334.382253 353.222027 
L 855.778897 353.21529 
L 861.637286 353.097569 
L 867.495675 353.217728 
L 949.513125 353.2239 
L 949.513125 353.2239 
" style="fill:none;stroke:#e4d354;stroke-linecap:square;"/>
   </g>
   <g id="line2d_94">
    <path clip-path="url(#p1aca4e119b)" d="M 76.613125 353.2239 
L 82.471514 351.509868 
L 88.329904 353.220395 
L 176.205742 353.222147 
L 199.639299 353.155549 
L 205.497689 351.981313 
L 211.356078 353.2239 
L 855.778897 353.213335 
L 861.637286 353.100381 
L 867.495675 353.2239 
L 949.513125 353.2239 
L 949.513125 353.2239 
" style="fill:none;stroke:#2b908f;stroke-linecap:square;"/>
   </g>
   <g id="line2d_95">
    <path clip-path="url(#p1aca4e119b)" d="M 76.613125 353.2239 
L 82.471514 350.332642 
L 88.329904 353.221777 
L 94.188293 353.206913 
L 100.046682 353.067191 
L 105.905071 353.211159 
L 182.064132 353.221777 
L 199.639299 353.090125 
L 205.497689 350.98199 
L 211.356078 353.222201 
L 310.948695 353.151578 
L 316.807085 353.06796 
L 328.523863 353.211448 
L 381.249367 353.223466 
L 387.107756 353.159531 
L 398.824534 353.223028 
L 533.567487 353.206325 
L 574.576212 353.2239 
L 949.513125 353.2239 
L 949.513125 353.2239 
" style="fill:none;stroke:#f45b5b;stroke-linecap:square;"/>
   </g>
   <g id="line2d_96">
    <path clip-path="url(#p1aca4e119b)" d="M 76.613125 353.2239 
L 82.471514 351.093559 
L 88.329904 353.216869 
L 170.347353 353.220385 
L 193.78091 353.188746 
L 199.639299 353.125469 
L 205.497689 351.522441 
L 211.356078 353.220385 
L 310.948695 353.170076 
L 316.807085 353.079888 
L 322.665474 353.205838 
L 469.125206 353.2239 
L 855.778897 353.208419 
L 861.637286 353.106203 
L 867.495675 353.2239 
L 949.513125 353.2239 
L 949.513125 353.2239 
" style="fill:none;stroke:#91e8e1;stroke-linecap:square;"/>
   </g>
   <g id="line2d_97">
    <path clip-path="url(#p1aca4e119b)" d="M 76.613125 353.2239 
L 82.471514 351.913859 
L 88.329904 353.222945 
L 199.639299 353.178068 
L 205.497689 352.053269 
L 211.356078 353.2239 
L 949.513125 353.2239 
L 949.513125 353.2239 
" style="fill:none;stroke:#7cb5ec;stroke-linecap:square;"/>
   </g>
   <g id="line2d_98">
    <path clip-path="url(#p1aca4e119b)" d="M 76.613125 353.2239 
L 82.471514 351.204841 
L 88.329904 353.220047 
L 164.488964 353.2239 
L 199.639299 353.123718 
L 205.497689 351.516946 
L 211.356078 353.2239 
L 949.513125 353.2239 
L 949.513125 353.2239 
" style="fill:none;stroke:#434348;stroke-linecap:square;"/>
   </g>
   <g id="line2d_99">
    <path clip-path="url(#p1aca4e119b)" d="M 76.613125 353.2239 
L 82.471514 350.261329 
L 88.329904 353.220515 
L 94.188293 353.21005 
L 100.046682 353.078326 
L 105.905071 353.21559 
L 193.78091 353.174657 
L 199.639299 353.116797 
L 205.497689 350.987968 
L 211.356078 353.223592 
L 310.948695 353.156217 
L 316.807085 353.080102 
L 328.523863 353.209657 
L 381.249367 353.2239 
L 392.966145 353.222651 
L 855.778897 353.213457 
L 861.637286 353.111177 
L 873.354065 353.220806 
L 949.513125 353.2239 
L 949.513125 353.2239 
" style="fill:none;stroke:#90ed7d;stroke-linecap:square;"/>
   </g>
   <g id="line2d_100">
    <path clip-path="url(#p1aca4e119b)" d="M 76.613125 353.2239 
L 82.471514 350.810065 
L 88.329904 353.221252 
L 146.913796 353.201956 
L 193.78091 353.190227 
L 199.639299 353.145583 
L 205.497689 351.416926 
L 211.356078 353.222765 
L 855.778897 353.212332 
L 861.637286 353.126885 
L 873.354065 353.221483 
L 949.513125 353.2239 
L 949.513125 353.2239 
" style="fill:none;stroke:#f7a35c;stroke-linecap:square;"/>
   </g>
   <g id="line2d_101">
    <path clip-path="url(#p1aca4e119b)" d="M 76.613125 353.2239 
L 82.471514 350.897055 
L 88.329904 353.221318 
L 176.205742 353.223255 
L 199.639299 353.146123 
L 205.497689 351.559611 
L 211.356078 353.222609 
L 310.948695 353.162553 
L 322.665474 353.192699 
L 363.674199 353.22084 
L 410.541313 353.22355 
L 685.885608 353.195194 
L 715.177555 353.220181 
L 855.778897 353.217371 
L 861.637286 353.136985 
L 873.354065 353.222381 
L 931.937957 353.221226 
L 949.513125 353.2239 
L 949.513125 353.2239 
" style="fill:none;stroke:#8085e9;stroke-linecap:square;"/>
   </g>
   <g id="line2d_102">
    <path clip-path="url(#p1aca4e119b)" d="M 76.613125 353.2239 
L 82.471514 351.150914 
L 88.329904 353.221232 
L 135.197018 353.221232 
L 199.639299 353.173209 
L 205.497689 351.703174 
L 211.356078 353.221232 
L 310.948695 353.191249 
L 322.665474 353.188312 
L 346.099031 353.212802 
L 603.868159 353.2239 
L 949.513125 353.2239 
L 949.513125 353.2239 
" style="fill:none;stroke:#f15c80;stroke-linecap:square;"/>
   </g>
   <g id="line2d_103">
    <path clip-path="url(#p1aca4e119b)" d="M 32.968125 353.2239 
L 993.158125 353.2239 
" style="fill:none;stroke:#dedede;stroke-linecap:square;stroke-width:2;"/>
   </g>
   <g id="text_17">
    <!-- Fastp: Read N Content -->
    <defs>
     <path d="M 9.8125 72.90625 
L 51.703125 72.90625 
L 51.703125 64.59375 
L 19.671875 64.59375 
L 19.671875 43.109375 
L 48.578125 43.109375 
L 48.578125 34.8125 
L 19.671875 34.8125 
L 19.671875 0 
L 9.8125 0 
z
" id="DejaVuSans-70"/>
     <path d="M 18.109375 8.203125 
L 18.109375 -20.796875 
L 9.078125 -20.796875 
L 9.078125 54.6875 
L 18.109375 54.6875 
L 18.109375 46.390625 
Q 20.953125 51.265625 25.265625 53.625 
Q 29.59375 56 35.59375 56 
Q 45.5625 56 51.78125 48.09375 
Q 58.015625 40.1875 58.015625 27.296875 
Q 58.015625 14.40625 51.78125 6.484375 
Q 45.5625 -1.421875 35.59375 -1.421875 
Q 29.59375 -1.421875 25.265625 0.953125 
Q 20.953125 3.328125 18.109375 8.203125 
z
M 48.6875 27.296875 
Q 48.6875 37.203125 44.609375 42.84375 
Q 40.53125 48.484375 33.40625 48.484375 
Q 26.265625 48.484375 22.1875 42.84375 
Q 18.109375 37.203125 18.109375 27.296875 
Q 18.109375 17.390625 22.1875 11.75 
Q 26.265625 6.109375 33.40625 6.109375 
Q 40.53125 6.109375 44.609375 11.75 
Q 48.6875 17.390625 48.6875 27.296875 
z
" id="DejaVuSans-112"/>
     <path d="M 9.8125 72.90625 
L 23.09375 72.90625 
L 55.421875 11.921875 
L 55.421875 72.90625 
L 64.984375 72.90625 
L 64.984375 0 
L 51.703125 0 
L 19.390625 60.984375 
L 19.390625 0 
L 9.8125 0 
z
" id="DejaVuSans-78"/>
    </defs>
    <g transform="translate(422.606875 19.3575)scale(0.16 -0.16)">
     <use xlink:href="#DejaVuSans-70"/>
     <use x="57.378906" xlink:href="#DejaVuSans-97"/>
     <use x="118.658203" xlink:href="#DejaVuSans-115"/>
     <use x="170.757812" xlink:href="#DejaVuSans-116"/>
     <use x="209.966797" xlink:href="#DejaVuSans-112"/>
     <use x="273.443359" xlink:href="#DejaVuSans-58"/>
     <use x="307.134766" xlink:href="#DejaVuSans-32"/>
     <use x="338.921875" xlink:href="#DejaVuSans-82"/>
     <use x="408.341797" xlink:href="#DejaVuSans-101"/>
     <use x="469.865234" xlink:href="#DejaVuSans-97"/>
     <use x="531.144531" xlink:href="#DejaVuSans-100"/>
     <use x="594.621094" xlink:href="#DejaVuSans-32"/>
     <use x="626.408203" xlink:href="#DejaVuSans-78"/>
     <use x="701.212891" xlink:href="#DejaVuSans-32"/>
     <use x="733" xlink:href="#DejaVuSans-67"/>
     <use x="802.824219" xlink:href="#DejaVuSans-111"/>
     <use x="864.005859" xlink:href="#DejaVuSans-110"/>
     <use x="927.384766" xlink:href="#DejaVuSans-116"/>
     <use x="966.59375" xlink:href="#DejaVuSans-101"/>
     <use x="1028.117188" xlink:href="#DejaVuSans-110"/>
     <use x="1091.496094" xlink:href="#DejaVuSans-116"/>
    </g>
   </g>
  </g>
 </g>
 <defs>
  <clipPath id="p1aca4e119b">
   <rect height="317.968" width="960.19" x="32.968125" y="35.2559"/>
  </clipPath>
 </defs>
</svg>
